<svg width="112" height="113" viewBox="0 0 112 113" fill="none" xmlns="http://www.w3.org/2000/svg">
<path d="M19.5416 87.9716L18.7246 76.9904H20.9166L21.3975 85.5191H21.4935L24.4898 78.1297H26.9218L27.6535 85.5191H27.7495L30.8046 76.9904H32.9646L28.7416 87.9716H26.1016L25.3172 80.6139H25.2212L22.1656 87.9716H19.5416ZM37.1285 79.269C39.9605 79.269 40.7183 80.2975 40.462 82.0063L39.5672 87.9716H37.7912L37.747 86.8798C37.2035 87.6235 36.0715 88.1298 34.6795 88.1298C32.7115 88.1298 31.8477 87.2754 32.1064 85.5507C32.4078 83.5412 33.7785 82.8291 36.0185 82.8291H38.3385L38.3955 82.4494C38.5474 81.4367 38.2713 80.9304 36.6713 80.9304C36.0473 80.9304 35.4298 80.9937 34.7892 81.1044L35.0432 79.4114C35.7158 79.3006 36.5045 79.269 37.1285 79.269ZM35.3441 86.5792C36.5601 86.5792 37.4793 86.1045 37.9588 85.3608L38.1273 84.2374H36.0793C34.8153 84.2374 34.2517 84.4747 34.0998 85.4874C33.9883 86.2311 34.3361 86.5792 35.3441 86.5792ZM41.3252 91.1362L41.5815 89.4273C43.0535 89.4273 43.6871 88.9368 44.159 87.9242L42.0254 79.4272H44.2334L45.5259 85.8513H45.6219L48.6974 79.4272H50.8094L46.6604 87.3545C45.2259 90.0919 44.1892 91.1362 41.3252 91.1362ZM55.9885 81.0095H54.0845L53.4674 85.1235C53.3013 86.2311 53.437 86.5001 54.333 86.5001C54.637 86.5001 54.8793 86.4843 55.1288 86.421L54.8939 87.9874C54.5508 88.0349 54.178 88.0666 53.81 88.0666C51.746 88.0666 51.1067 87.5286 51.4437 85.2817L52.0845 81.0095H50.8845L51.1218 79.4272H52.3218L52.6256 77.4018H54.6256L54.3218 79.4272H56.2258L55.9885 81.0095ZM60.1619 88.1298C57.5379 88.1298 56.1627 87.1646 56.6824 83.6994C57.2021 80.2342 58.8669 79.269 61.4909 79.269C64.1309 79.269 65.5061 80.2342 64.9864 83.6994C64.4667 87.1646 62.8019 88.1298 60.1619 88.1298ZM60.3921 86.595C61.9921 86.595 62.5901 85.9146 62.9224 83.6994C63.2546 81.4842 62.8471 80.788 61.2631 80.788C59.6791 80.788 59.0786 81.4842 58.7464 83.6994C58.4141 85.9146 58.8401 86.595 60.3921 86.595ZM74.1239 87.9716L73.5365 85.0602H68.8965L67.4039 87.9716H65.2439L71.0509 76.9904H73.8669L76.3479 87.9716H74.1239ZM69.7816 83.3197H73.1736L72.2612 78.8417H72.0692L69.7816 83.3197ZM82.5394 88.1298C79.1794 88.1298 77.32 87.0855 78.0106 82.481C78.6467 78.2405 80.9379 76.8322 84.3459 76.8322C85.3539 76.8322 86.6445 76.9746 87.2305 77.2278L86.9553 79.0633C86.1843 78.7626 85.2457 78.6202 84.2217 78.6202C81.9657 78.6202 80.7223 79.443 80.2666 82.481C79.7849 85.6931 80.6748 86.3735 82.9628 86.3735C83.4588 86.3735 83.9572 86.3577 84.3738 86.2469L84.782 83.5254H82.782L83.0431 81.7848H87.0111L86.1306 87.6552C85.2606 87.9083 83.9314 88.1298 82.5394 88.1298ZM88.538 87.9716L90.185 76.9904H92.281L90.634 87.9716H88.538Z" fill="white"/>
<g clip-path="url(#clip0_3160_2372)">
<rect x="30.6316" y="20" width="50" height="50" rx="8" fill="black"/>
<path fill-rule="evenodd" clip-rule="evenodd" d="M81.9468 116C106.523 116 126.447 96.0767 126.447 71.5C126.447 46.9233 106.523 27 81.9468 27C57.3701 27 37.4468 46.9233 37.4468 71.5C37.4468 96.0767 57.3701 116 81.9468 116ZM82.1317 111.55C104.251 111.55 122.182 93.619 122.182 71.5C122.182 49.381 104.251 31.45 82.1317 31.45C60.0127 31.45 42.0817 49.381 42.0817 71.5C42.0817 93.619 60.0127 111.55 82.1317 111.55Z" fill="#FC4A55"/>
<path fill-rule="evenodd" clip-rule="evenodd" d="M82.1315 111.55C104.251 111.55 122.182 93.6192 122.182 71.5002C122.182 49.3812 104.251 31.4502 82.1315 31.4502C60.0125 31.4502 42.0815 49.3812 42.0815 71.5002C42.0815 93.6192 60.0125 111.55 82.1315 111.55ZM82.1315 107.1C101.793 107.1 117.732 91.1615 117.732 71.5002C117.732 51.8389 101.793 35.9002 82.1315 35.9002C62.4702 35.9002 46.5315 51.8389 46.5315 71.5002C46.5315 91.1615 62.4702 107.1 82.1315 107.1Z" fill="#FFB045"/>
<path fill-rule="evenodd" clip-rule="evenodd" d="M82.1315 107.1C101.793 107.1 117.731 91.1612 117.731 71.4999C117.731 51.8386 101.793 35.8999 82.1315 35.8999C62.4702 35.8999 46.5315 51.8386 46.5315 71.4999C46.5315 91.1612 62.4702 107.1 82.1315 107.1ZM82.1315 102.65C99.3352 102.65 113.281 88.7036 113.281 71.4999C113.281 54.2962 99.3352 40.3499 82.1315 40.3499C64.9278 40.3499 50.9815 54.2962 50.9815 71.4999C50.9815 88.7036 64.9278 102.65 82.1315 102.65Z" fill="#FFFA6D"/>
<path fill-rule="evenodd" clip-rule="evenodd" d="M82.1316 98.1998C96.8776 98.1998 108.832 86.2458 108.832 71.4998C108.832 56.7538 96.8776 44.7998 82.1316 44.7998C67.3856 44.7998 55.4316 56.7538 55.4316 71.4998C55.4316 86.2458 67.3856 98.1998 82.1316 98.1998ZM82.1316 93.7498C94.42 93.7498 104.382 83.7881 104.382 71.4998C104.382 59.2115 94.42 49.2498 82.1316 49.2498C69.8433 49.2498 59.8816 59.2115 59.8816 71.4998C59.8816 83.7881 69.8433 93.7498 82.1316 93.7498Z" fill="#3BA9FE"/>
<path fill-rule="evenodd" clip-rule="evenodd" d="M82.1316 93.75C94.4199 93.75 104.382 83.7883 104.382 71.5C104.382 59.2117 94.4199 49.25 82.1316 49.25C69.8433 49.25 59.8816 59.2117 59.8816 71.5C59.8816 83.7883 69.8433 93.75 82.1316 93.75ZM82.1316 89.3C91.9623 89.3 99.9316 81.3307 99.9316 71.5C99.9316 61.6693 91.9623 53.7 82.1316 53.7C72.3009 53.7 64.3316 61.6693 64.3316 71.5C64.3316 81.3307 72.3009 89.3 82.1316 89.3Z" fill="#965DED"/>
<path fill-rule="evenodd" clip-rule="evenodd" d="M82.1317 102.65C99.3354 102.65 113.282 88.7038 113.282 71.5001C113.282 54.2964 99.3354 40.3501 82.1317 40.3501C64.928 40.3501 50.9817 54.2964 50.9817 71.5001C50.9817 88.7038 64.928 102.65 82.1317 102.65ZM82.1317 98.2001C96.8777 98.2001 108.832 86.2461 108.832 71.5001C108.832 56.7541 96.8777 44.8001 82.1317 44.8001C67.3857 44.8001 55.4317 56.7541 55.4317 71.5001C55.4317 86.2461 67.3857 98.2001 82.1317 98.2001Z" fill="#30FD2F"/>
<path d="M40.847 26.8547C40.9381 26.5811 41.3251 26.5811 41.4162 26.8547L42.3036 29.5191C42.3311 29.6019 42.3934 29.6686 42.4741 29.7018L44.9567 30.7225C45.2046 30.8245 45.2046 31.1755 44.9567 31.2775L42.4741 32.2982C42.3934 32.3314 42.3311 32.3981 42.3036 32.4809L41.4162 35.1453C41.3251 35.4189 40.9381 35.4189 40.847 35.1453L39.9596 32.4809C39.932 32.3981 39.8698 32.3314 39.7891 32.2982L37.3064 31.2775C37.0585 31.1755 37.0585 30.8245 37.3064 30.7225L39.7891 29.7018C39.8698 29.6686 39.932 29.6019 39.9596 29.5191L40.847 26.8547Z" fill="white"/>
<path d="M35.8449 40.9297C35.9319 40.6476 36.3313 40.6476 36.4183 40.9297L36.7666 42.0593C36.7922 42.1422 36.8523 42.2099 36.9315 42.2451L38.0141 42.7258C38.2518 42.8313 38.2518 43.1687 38.0141 43.2742L36.9315 43.7549C36.8523 43.7901 36.7922 43.8578 36.7666 43.9407L36.4183 45.0703C36.3313 45.3524 35.9319 45.3524 35.8449 45.0703L35.4966 43.9407C35.471 43.8578 35.4109 43.7901 35.3316 43.7549L34.2491 43.2742C34.0114 43.1687 34.0114 42.8313 34.2491 42.7258L35.3316 42.2451C35.4109 42.2099 35.471 42.1422 35.4966 42.0593L35.8449 40.9297Z" fill="white"/>
</g>
<defs>
<clipPath id="clip0_3160_2372">
<rect x="30.6316" y="20" width="50" height="50" rx="8" fill="white"/>
</clipPath>
</defs>
</svg>
