<svg width="112" height="113" viewBox="0 0 112 113" fill="none" xmlns="http://www.w3.org/2000/svg">
<g clip-path="url(#clip0_4249_266)">
<rect x="30.6316" y="20" width="50" height="50" rx="8" fill="white"/>
<path fill-rule="evenodd" clip-rule="evenodd" d="M82.1316 116C106.708 116 126.632 96.0767 126.632 71.5C126.632 46.9233 106.708 27 82.1316 27C57.5549 27 37.6316 46.9233 37.6316 71.5C37.6316 96.0767 57.5549 116 82.1316 116ZM82.1316 111.55C104.251 111.55 122.182 93.619 122.182 71.5C122.182 49.381 104.251 31.45 82.1316 31.45C60.0126 31.45 42.0816 49.381 42.0816 71.5C42.0816 93.619 60.0126 111.55 82.1316 111.55Z" fill="#FC4A55"/>
<path fill-rule="evenodd" clip-rule="evenodd" d="M82.1315 111.55C104.251 111.55 122.182 93.6192 122.182 71.5002C122.182 49.3812 104.251 31.4502 82.1315 31.4502C60.0125 31.4502 42.0815 49.3812 42.0815 71.5002C42.0815 93.6192 60.0125 111.55 82.1315 111.55ZM82.1315 107.1C101.793 107.1 117.732 91.1615 117.732 71.5002C117.732 51.8389 101.793 35.9002 82.1315 35.9002C62.4702 35.9002 46.5315 51.8389 46.5315 71.5002C46.5315 91.1615 62.4702 107.1 82.1315 107.1Z" fill="#FFB045"/>
<path fill-rule="evenodd" clip-rule="evenodd" d="M82.1315 107.1C101.793 107.1 117.731 91.1612 117.731 71.4999C117.731 51.8386 101.793 35.8999 82.1315 35.8999C62.4702 35.8999 46.5315 51.8386 46.5315 71.4999C46.5315 91.1612 62.4702 107.1 82.1315 107.1ZM82.1315 102.65C99.3352 102.65 113.281 88.7036 113.281 71.4999C113.281 54.2962 99.3352 40.3499 82.1315 40.3499C64.9278 40.3499 50.9815 54.2962 50.9815 71.4999C50.9815 88.7036 64.9278 102.65 82.1315 102.65Z" fill="#FFFA6D"/>
<path fill-rule="evenodd" clip-rule="evenodd" d="M82.1316 98.1998C96.8776 98.1998 108.832 86.2458 108.832 71.4998C108.832 56.7538 96.8776 44.7998 82.1316 44.7998C67.3856 44.7998 55.4316 56.7538 55.4316 71.4998C55.4316 86.2458 67.3856 98.1998 82.1316 98.1998ZM82.1316 93.7498C94.42 93.7498 104.382 83.7881 104.382 71.4998C104.382 59.2115 94.42 49.2498 82.1316 49.2498C69.8433 49.2498 59.8816 59.2115 59.8816 71.4998C59.8816 83.7881 69.8433 93.7498 82.1316 93.7498Z" fill="#3BA9FE"/>
<path fill-rule="evenodd" clip-rule="evenodd" d="M82.1316 93.75C94.4199 93.75 104.382 83.7883 104.382 71.5C104.382 59.2117 94.4199 49.25 82.1316 49.25C69.8433 49.25 59.8816 59.2117 59.8816 71.5C59.8816 83.7883 69.8433 93.75 82.1316 93.75ZM82.1316 89.3C91.9623 89.3 99.9316 81.3307 99.9316 71.5C99.9316 61.6693 91.9623 53.7 82.1316 53.7C72.3009 53.7 64.3316 61.6693 64.3316 71.5C64.3316 81.3307 72.3009 89.3 82.1316 89.3Z" fill="#965DED"/>
<path fill-rule="evenodd" clip-rule="evenodd" d="M82.1317 102.65C99.3354 102.65 113.282 88.7038 113.282 71.5001C113.282 54.2964 99.3354 40.3501 82.1317 40.3501C64.928 40.3501 50.9817 54.2964 50.9817 71.5001C50.9817 88.7038 64.928 102.65 82.1317 102.65ZM82.1317 98.2001C96.8777 98.2001 108.832 86.2461 108.832 71.5001C108.832 56.7541 96.8777 44.8001 82.1317 44.8001C67.3857 44.8001 55.4317 56.7541 55.4317 71.5001C55.4317 86.2461 67.3857 98.2001 82.1317 98.2001Z" fill="#30FD2F"/>
<path d="M41.0469 26.3547C41.138 26.0811 41.5251 26.0811 41.6162 26.3547L42.5035 29.0191C42.5311 29.1019 42.5934 29.1686 42.6741 29.2018L45.1567 30.2225C45.4046 30.3245 45.4046 30.6755 45.1567 30.7775L42.6741 31.7982C42.5934 31.8314 42.5311 31.8981 42.5035 31.9809L41.6162 34.6453C41.5251 34.9189 41.138 34.9189 41.0469 34.6453L40.1596 31.9809C40.132 31.8981 40.0697 31.8314 39.989 31.7982L37.5064 30.7775C37.2585 30.6755 37.2585 30.3245 37.5064 30.2225L39.989 29.2018C40.0697 29.1686 40.132 29.1019 40.1596 29.0191L41.0469 26.3547Z" fill="black"/>
<path d="M36.0449 40.4297C36.1319 40.1476 36.5312 40.1476 36.6182 40.4297L36.9666 41.5593C36.9921 41.6422 37.0522 41.7099 37.1315 41.7451L38.2141 42.2258C38.4517 42.3313 38.4517 42.6687 38.2141 42.7742L37.1315 43.2549C37.0522 43.2901 36.9921 43.3578 36.9666 43.4407L36.6182 44.5703C36.5312 44.8524 36.1319 44.8524 36.0449 44.5703L35.6965 43.4407C35.671 43.3578 35.6108 43.2901 35.5316 43.2549L34.449 42.7742C34.2114 42.6687 34.2114 42.3313 34.449 42.2258L35.5316 41.7451C35.6108 41.7099 35.671 41.6422 35.6965 41.5593L36.0449 40.4297Z" fill="black"/>
</g>
<path d="M19.5416 87.7719L18.7246 76.7907H20.9166L21.3975 85.3193H21.4935L24.4898 77.93H26.9218L27.6535 85.3193H27.7495L30.8046 76.7907H32.9646L28.7416 87.7719H26.1016L25.3172 80.4142H25.2212L22.1656 87.7719H19.5416ZM37.1285 79.0693C39.9605 79.0693 40.7183 80.0978 40.462 81.8066L39.5672 87.7719H37.7912L37.747 86.6801C37.2035 87.4238 36.0715 87.9301 34.6795 87.9301C32.7115 87.9301 31.8477 87.0757 32.1064 85.351C32.4078 83.3415 33.7785 82.6294 36.0185 82.6294H38.3385L38.3955 82.2497C38.5474 81.237 38.2713 80.7307 36.6713 80.7307C36.0473 80.7307 35.4298 80.794 34.7892 80.9047L35.0432 79.2117C35.7158 79.1009 36.5045 79.0693 37.1285 79.0693ZM35.3441 86.3795C36.5601 86.3795 37.4793 85.9048 37.9588 85.1611L38.1273 84.0377H36.0793C34.8153 84.0377 34.2517 84.275 34.0998 85.2877C33.9883 86.0314 34.3361 86.3795 35.3441 86.3795ZM41.3252 90.9365L41.5815 89.2276C43.0535 89.2276 43.6871 88.7371 44.159 87.7244L42.0254 79.2275H44.2334L45.5259 85.6516H45.6219L48.6974 79.2275H50.8094L46.6604 87.1548C45.2259 89.8922 44.1892 90.9365 41.3252 90.9365ZM55.9885 80.8098H54.0845L53.4674 84.9238C53.3013 86.0314 53.437 86.3004 54.333 86.3004C54.637 86.3004 54.8793 86.2845 55.1288 86.2213L54.8939 87.7877C54.5508 87.8352 54.178 87.8669 53.81 87.8669C51.746 87.8669 51.1067 87.3289 51.4437 85.082L52.0845 80.8098H50.8845L51.1218 79.2275H52.3218L52.6256 77.2021H54.6256L54.3218 79.2275H56.2258L55.9885 80.8098ZM60.1619 87.9301C57.5379 87.9301 56.1627 86.9649 56.6824 83.4997C57.2021 80.0345 58.8669 79.0693 61.4909 79.0693C64.1309 79.0693 65.5061 80.0345 64.9864 83.4997C64.4667 86.9649 62.8019 87.9301 60.1619 87.9301ZM60.3921 86.3953C61.9921 86.3953 62.5901 85.7149 62.9224 83.4997C63.2546 81.2845 62.8471 80.5883 61.2631 80.5883C59.6791 80.5883 59.0786 81.2845 58.7464 83.4997C58.4141 85.7149 58.8401 86.3953 60.3921 86.3953ZM74.1239 87.7719L73.5365 84.8605H68.8965L67.4039 87.7719H65.2439L71.0509 76.7907H73.8669L76.3479 87.7719H74.1239ZM69.7816 83.1199H73.1736L72.2612 78.642H72.0692L69.7816 83.1199ZM82.5394 87.9301C79.1794 87.9301 77.32 86.8858 78.0106 82.2813C78.6467 78.0408 80.9379 76.6325 84.3459 76.6325C85.3539 76.6325 86.6445 76.7749 87.2305 77.0281L86.9553 78.8636C86.1843 78.5629 85.2457 78.4205 84.2217 78.4205C81.9657 78.4205 80.7223 79.2433 80.2666 82.2813C79.7849 85.4934 80.6748 86.1738 82.9628 86.1738C83.4588 86.1738 83.9572 86.158 84.3738 86.0472L84.782 83.3256H82.782L83.0431 81.5851H87.0111L86.1306 87.4555C85.2606 87.7086 83.9314 87.9301 82.5394 87.9301ZM88.538 87.7719L90.185 76.7907H92.281L90.634 87.7719H88.538Z" fill="white"/>
<defs>
<clipPath id="clip0_4249_266">
<rect x="30.6316" y="20" width="50" height="50" rx="8" fill="white"/>
</clipPath>
</defs>
</svg>
